<svg width="136" height="41" viewBox="0 0 136 41" fill="none" xmlns="http://www.w3.org/2000/svg">

<!-- LETTER I: full top (rows 1-2), center stem (rows 3-5), full bottom (rows 6-7) -->
<rect x="0.928" y="0.241"  width="42.052" height="3.278" rx="1.639" fill="#FFF669"/>
<rect x="0.928" y="6.724"  width="42.052" height="2.916" rx="1.458" fill="#FFF669"/>
<rect x="11.95" y="13.211" width="19.03"  height="2.549" rx="1.274" fill="#FFF669"/>
<rect x="11.95" y="19.698" width="19.03"  height="2.182" rx="1.091" fill="#FFF669"/>
<rect x="11.95" y="26.176" width="19.03"  height="1.825" rx="0.912" fill="#FFF669"/>
<rect x="0.928" y="32.663" width="42.052" height="1.458" rx="0.729" fill="#FFF669"/>
<rect x="0.928" y="39.150" width="42.052" height="1.091" rx="0.545" fill="#FFF669"/>

<!-- LETTER B: full top (rows 1-2), left-half (row 3), full middle (rows 4-5), left-half (row 6), full bottom (row 7) -->
<rect x="46.469" y="0.241"  width="42.902" height="3.278" rx="1.639" fill="#FFF669"/>
<rect x="46.469" y="6.724"  width="42.902" height="2.916" rx="1.458" fill="#FFF669"/>
<rect x="46.469" y="13.211" width="20.97"  height="2.549" rx="1.274" fill="#FFF669"/>
<rect x="46.469" y="19.698" width="42.902" height="2.182" rx="1.091" fill="#FFF669"/>
<rect x="46.469" y="26.176" width="42.902" height="1.825" rx="0.912" fill="#FFF669"/>
<rect x="46.469" y="32.663" width="20.97"  height="1.458" rx="0.729" fill="#FFF669"/>
<rect x="46.469" y="39.150" width="42.902" height="1.091" rx="0.545" fill="#FFF669"/>

<!-- LETTER L: full top (row 1), left-stem (rows 2-6), full bottom (row 7) -->
<rect x="92.832" y="0.241"  width="42.936" height="3.278" rx="1.639" fill="#FFF669"/>
<rect x="92.832" y="6.724"  width="20.97"  height="2.916" rx="1.458" fill="#FFF669"/>
<rect x="92.832" y="13.211" width="20.97"  height="2.549" rx="1.274" fill="#FFF669"/>
<rect x="92.832" y="19.698" width="20.97"  height="2.182" rx="1.091" fill="#FFF669"/>
<rect x="92.832" y="26.176" width="20.97"  height="1.825" rx="0.912" fill="#FFF669"/>
<rect x="92.832" y="32.663" width="20.97"  height="1.458" rx="0.729" fill="#FFF669"/>
<rect x="92.832" y="39.150" width="42.936" height="1.091" rx="0.545" fill="#FFF669"/>

</svg>
