<svg xmlns="http://www.w3.org/2000/svg" viewBox="0 0 512 512">
  <path fill="#E44D26" d="M107.6 471L74 100h364l-33.6 371L255.7 512z"/>
  <path fill="#F16529" d="M256 480.5l120.9-33.5L405 131.5H256z"/>
  <path fill="#EBEBEB" d="M256 268.5h-60.1l-4.2-46.5H256v-45.4H145.5l1.1 12.2 11.3 126.7H256zM256 386l-.2.1-50.8-13.7-3.2-36.4h-45.5l6.4 71.4 93.2 25.8.1-.1z"/>
  <path fill="#fff" d="M255.8 268.5v45.4h55.9l-5.3 58.9-50.6 13.7v47.2l93.3-25.8 1.3-15.1 10.7-120.2 1.1-12.2H255.8zM255.8 177.6v45.4h109.2l.9-9.9 2.1-23.3 1.1-12.2z"/>
</svg>
